# xmcd
#
# Track frame offsets:
# 150
# 18374
# 34310
# 52472
# 70253
# 85980
# 103945
# 122083
# 137612
# 153126
# 168885
# 185686
# 201353
# 217464
# 232273
# 245466
# 261803
# 276948
#
# Disc length: 3909 seconds
#
# Revision: 0
# Processed by: cddbd v1.4PL0 Copyright (c) Steve Scherf et al.
# Submitted via: Audion 2.5.0 (http://www.panic.com/audion/)
#
DISCID=1b0f4312
DTITLE=Greg Becker - Greg Becker Demos 10/00-10/01
DYEAR=1900
DGENRE=
TTITLE0=here
TTITLE1=good day to die
TTITLE2=little boy
TTITLE3=i can't unlove you
TTITLE4=and i burn
TTITLE5=just the way we were
TTITLE6=oxygen
TTITLE7=she's all that
TTITLE8=so long the night
TTITLE9=trust
TTITLE10=little dirt road
TTITLE11=bored
TTITLE12=bedrock
TTITLE13=lullaby
TTITLE14=the harder he falls
TTITLE15=unbreakable
TTITLE16=i saw her first
TTITLE17=every now and then
EXTD=
EXTT0=
EXTT1=
EXTT2=
EXTT3=
EXTT4=
EXTT5=
EXTT6=
EXTT7=
EXTT8=
EXTT9=
EXTT10=
EXTT11=
EXTT12=
EXTT13=
EXTT14=
EXTT15=
EXTT16=
EXTT17=
PLAYORDER=
